<svg width="204" height="177" viewBox="0 0 204 177" fill="none" xmlns="http://www.w3.org/2000/svg">
<path fill-rule="evenodd" clip-rule="evenodd" d="M51 177C79.1665 177 102 137.377 102 88.5C102 39.6226 79.1665 0 51 0C22.8335 0 0 39.6226 0 88.5C0 137.377 22.8335 177 51 177ZM73.5 128C88.6877 128 101 110.315 101 88.5C101 66.6846 88.6877 49 73.5 49C58.3123 49 46 66.6846 46 88.5C46 110.315 58.3123 128 73.5 128Z" fill="white"/>
<path fill-rule="evenodd" clip-rule="evenodd" d="M153 177C181.167 177 204 137.377 204 88.5C204 39.6228 181.167 0 153 0C124.833 0 102 39.6228 102 88.5C102 137.377 124.833 177 153 177ZM175.5 128C190.688 128 203 110.315 203 88.5C203 66.6848 190.688 49 175.5 49C160.312 49 148 66.6848 148 88.5C148 110.315 160.312 128 175.5 128Z" fill="white"/>
</svg>
